<svg width="37" height="35" viewBox="0 0 37 35" fill="none" xmlns="http://www.w3.org/2000/svg">
<path d="M0 15.5034C0 15.5034 6.87306 18.7919 3.55108 21.6107C7.26868 23.4742 10.4818 24.1508 12 24.5C7.87616 29.6678 1 33 1 33L2.40557 35C2.40557 35 8.23065 31.3423 13.5 25C14.722 27.0172 17.5751 32.1475 20.6192 33.7081C20.9628 31.9463 21.6502 30.302 27.1486 33.7081C28.2207 32.4161 31.7306 32.4161 31.7306 32.4161C31.7306 32.4161 29.5 31 28.9814 27.953C25.3158 27.953 23.483 24.6644 33.1053 25.2517C31.7306 22.5 37 19.7315 37 19.7315C37 19.7315 30.1269 18.5 31.0433 14.9161C28.9814 18.0872 20.7337 22.198 27.1486 15.5034C25.5 15 26 14 31.0433 10.453C30 10 26.6904 9.16107 32.5325 5.40268C30.1269 4 30.1269 0.939597 30.1269 0.939597C30.1269 0.939597 26.5 0.939597 24.2848 0C24.2848 3.17115 21 5 19.7028 3.52349C19.7028 6.34228 19 10.453 17.0681 8.80872C17.7554 11.9799 12.1424 15.5034 16.4954 4.46309C12 5.40268 9.39319 0.587248 9.39319 0.587248C9.39319 0.587248 7.78947 7.28188 6.30031 6.92953C9.39319 10.8054 9.39319 18.2047 5.26935 11.1577C3 12 0 10.453 0 10.453C0 10.453 1 13 0 15.5034Z" fill="#CF5430"/>
</svg>
